#tb 0: 1/25
#media_type 0: video
#codec_id 0: rawvideo
#dimensions 0: 352x512
#sar 0: 1/1
0,          0,          0,        1,   540672, 0x8a2521d6
0,          1,          1,        1,   540672, 0xb9a321d6
0,          2,          2,        1,   540672, 0x325421d6
0,          3,          3,        1,   540672, 0xafee21d2
0,          4,          4,        1,   540672, 0x172121d6
0,          5,          5,        1,   540672, 0x24d121d6
0,          6,          6,        1,   540672, 0x7fec21d6
0,          7,          7,        1,   540672, 0xa8a021d6
0,          8,          8,        1,   540672, 0x29fd21d6
0,          9,          9,        1,   540672, 0x6dfe21d6
0,         10,         10,        1,   540672, 0xe39821d6
0,         11,         11,        1,   540672, 0x83f521d6
0,         12,         12,        1,   540672, 0x57aa21d6
0,         13,         13,        1,   540672, 0x67b221d6
0,         14,         14,        1,   540672, 0x535821d6
0,         15,         15,        1,   540672, 0xb8ac21d6
0,         16,         16,        1,   540672, 0x27f621d6
0,         17,         17,        1,   540672, 0x775221d6
0,         18,         18,        1,   540672, 0x8e6621d6
0,         19,         19,        1,   540672, 0x74c921d6
0,         20,         20,        1,   540672, 0x04cd21d6
0,         21,         21,        1,   540672, 0xccd421d6
0,         22,         22,        1,   540672, 0x317221d6
0,         23,         23,        1,   540672, 0xd79321d6
0,         24,         24,        1,   540672, 0xa2ac21d6
0,         25,         25,        1,   540672, 0x7f0a21d6
0,         26,         26,        1,   540672, 0x483521d6
0,         27,         27,        1,   540672, 0xb65721d6
0,         28,         28,        1,   540672, 0xb77021d6
0,         29,         29,        1,   540672, 0x9fd521d6
0,         30,         30,        1,   540672, 0xb72121d6
0,         31,         31,        1,   540672, 0x540221d6
0,         32,         32,        1,   540672, 0xa34121d6
0,         33,         33,        1,   540672, 0xe01421d6
0,         34,         34,        1,   540672, 0x6fc721d6
0,         35,         35,        1,   540672, 0x7fa621d6
0,         36,         36,        1,   540672, 0xc48c21d6
0,         37,         37,        1,   540672, 0x40f021d6
0,         38,         38,        1,   540672, 0xdf3f21d6
0,         39,         39,        1,   540672, 0xb04321d6
0,         40,         40,        1,   540672, 0x222821d6
0,         41,         41,        1,   540672, 0x2a5521d6
0,         42,         42,        1,   540672, 0x6a4621be
0,         43,         43,        1,   540672, 0xed7f21d6
0,         44,         44,        1,   540672, 0xb16521d6
0,         45,         45,        1,   540672, 0x9f5621d6
0,         46,         46,        1,   540672, 0x204321d6
0,         47,         47,        1,   540672, 0xc26e21d6
0,         48,         48,        1,   540672, 0x3e8321d6
0,         49,         49,        1,   540672, 0xaaee21d6
